<mxfile host="65bd71144e">
    <diagram id="jT6umc9I7dE0KgOjDbpM" name="Página-1">
        <mxGraphModel dx="540" dy="792" grid="1" gridSize="7" guides="1" tooltips="1" connect="1" arrows="1" fold="1" page="0" pageScale="1" pageWidth="827" pageHeight="1169" background="none" math="0" shadow="1">
            <root>
                <mxCell id="0"/>
                <mxCell id="1" parent="0"/>
                <mxCell id="9" style="edgeStyle=none;html=1;sketch=1;curveFitting=1;jiggle=2;strokeWidth=2;" edge="1" parent="1" source="2" target="7">
                    <mxGeometry relative="1" as="geometry"/>
                </mxCell>
                <mxCell id="2" value="INICIO" style="ellipse;whiteSpace=wrap;html=1;aspect=fixed;fillColor=#60a917;fontColor=#ffffff;strokeColor=#2D7600;sketch=1;curveFitting=1;jiggle=2;" vertex="1" parent="1">
                    <mxGeometry x="50" y="110" width="150" height="150" as="geometry"/>
                </mxCell>
                <mxCell id="11" value="FALSO" style="edgeStyle=none;html=1;exitX=0.5;exitY=1;exitDx=0;exitDy=0;fillColor=#a20025;strokeColor=#6F0000;sketch=1;curveFitting=1;jiggle=2;strokeWidth=2;" edge="1" parent="1" source="7" target="10">
                    <mxGeometry relative="1" as="geometry"/>
                </mxCell>
                <mxCell id="28" value="VERDADEIRO" style="edgeStyle=none;html=1;entryX=0.5;entryY=0;entryDx=0;entryDy=0;fillColor=#60a917;strokeColor=#2D7600;sketch=1;curveFitting=1;jiggle=2;jumpSize=11;strokeWidth=2;" edge="1" parent="1" source="7" target="27">
                    <mxGeometry x="-0.1466" relative="1" as="geometry">
                        <Array as="points">
                            <mxPoint x="270" y="550"/>
                        </Array>
                        <mxPoint as="offset"/>
                    </mxGeometry>
                </mxCell>
                <mxCell id="7" value="VERIFICA CONDIÇÃO" style="rhombus;whiteSpace=wrap;html=1;fillColor=#6a00ff;fontColor=#ffffff;strokeColor=#3700CC;sketch=1;curveFitting=1;jiggle=2;" vertex="1" parent="1">
                    <mxGeometry x="60" y="480" width="130" height="130" as="geometry"/>
                </mxCell>
                <mxCell id="10" value="FIM" style="ellipse;whiteSpace=wrap;html=1;aspect=fixed;fillColor=#a20025;fontColor=#ffffff;strokeColor=#6F0000;sketch=1;curveFitting=1;jiggle=2;" vertex="1" parent="1">
                    <mxGeometry x="60" y="775" width="130" height="130" as="geometry"/>
                </mxCell>
                <mxCell id="17" value="" style="edgeStyle=none;html=1;sketch=1;curveFitting=1;jiggle=2;strokeWidth=2;" edge="1" parent="1" source="15" target="16">
                    <mxGeometry relative="1" as="geometry"/>
                </mxCell>
                <mxCell id="15" value="INICIO" style="ellipse;whiteSpace=wrap;html=1;aspect=fixed;fillColor=#60a917;fontColor=#ffffff;strokeColor=#2D7600;sketch=1;curveFitting=1;jiggle=2;" vertex="1" parent="1">
                    <mxGeometry x="360" y="90" width="170" height="170" as="geometry"/>
                </mxCell>
                <mxCell id="20" value="" style="edgeStyle=none;html=1;sketch=1;curveFitting=1;jiggle=2;strokeWidth=2;" edge="1" parent="1" source="16" target="19">
                    <mxGeometry relative="1" as="geometry"/>
                </mxCell>
                <mxCell id="16" value="EXECUTA O COMANDO" style="whiteSpace=wrap;html=1;sketch=1;curveFitting=1;jiggle=2;" vertex="1" parent="1">
                    <mxGeometry x="385" y="370" width="120" height="60" as="geometry"/>
                </mxCell>
                <mxCell id="25" value="FALSO" style="edgeStyle=none;html=1;fillColor=#a20025;strokeColor=#6F0000;sketch=1;curveFitting=1;jiggle=2;strokeWidth=2;" edge="1" parent="1" source="19" target="24">
                    <mxGeometry relative="1" as="geometry"/>
                </mxCell>
                <mxCell id="30" value="VERDADEIRO" style="edgeStyle=none;html=1;fillColor=#60a917;strokeColor=#2D7600;sketch=1;curveFitting=1;jiggle=2;strokeWidth=2;" edge="1" parent="1" source="19" target="31">
                    <mxGeometry relative="1" as="geometry">
                        <mxPoint x="650" y="545" as="targetPoint"/>
                    </mxGeometry>
                </mxCell>
                <mxCell id="19" value="VERIFICA CONDIÇÃO" style="rhombus;whiteSpace=wrap;html=1;fillColor=#6a00ff;fontColor=#ffffff;strokeColor=#3700CC;sketch=1;curveFitting=1;jiggle=2;" vertex="1" parent="1">
                    <mxGeometry x="375" y="480" width="140" height="130" as="geometry"/>
                </mxCell>
                <mxCell id="24" value="FIM" style="ellipse;whiteSpace=wrap;html=1;fillColor=#a20025;fontColor=#ffffff;strokeColor=#6F0000;sketch=1;curveFitting=1;jiggle=2;" vertex="1" parent="1">
                    <mxGeometry x="377.5" y="775" width="135" height="135" as="geometry"/>
                </mxCell>
                <mxCell id="29" style="edgeStyle=none;html=1;entryX=0.692;entryY=0.846;entryDx=0;entryDy=0;entryPerimeter=0;fillColor=#60a917;strokeColor=#2D7600;sketch=1;curveFitting=1;jiggle=2;endSize=7;strokeWidth=2;" edge="1" parent="1" source="27" target="7">
                    <mxGeometry relative="1" as="geometry"/>
                </mxCell>
                <mxCell id="27" value="EXECUTA" style="rounded=0;whiteSpace=wrap;html=1;sketch=1;curveFitting=1;jiggle=2;" vertex="1" parent="1">
                    <mxGeometry x="220" y="660" width="120" height="60" as="geometry"/>
                </mxCell>
                <mxCell id="32" style="edgeStyle=none;html=1;entryX=1;entryY=0;entryDx=0;entryDy=0;fillColor=#60a917;strokeColor=#2D7600;sketch=1;curveFitting=1;jiggle=2;strokeWidth=2;" edge="1" parent="1" source="31" target="19">
                    <mxGeometry relative="1" as="geometry">
                        <Array as="points">
                            <mxPoint x="610" y="450"/>
                        </Array>
                    </mxGeometry>
                </mxCell>
                <mxCell id="31" value="EXECUTA" style="rounded=0;whiteSpace=wrap;html=1;sketch=1;curveFitting=1;jiggle=2;" vertex="1" parent="1">
                    <mxGeometry x="620" y="660" width="120" height="60" as="geometry"/>
                </mxCell>
                <mxCell id="36" value="" style="edgeStyle=none;html=1;entryX=0.5;entryY=0;entryDx=0;entryDy=0;sketch=1;curveFitting=1;jiggle=2;strokeWidth=2;" edge="1" parent="1" source="33" target="42">
                    <mxGeometry relative="1" as="geometry">
                        <mxPoint x="902" y="360" as="targetPoint"/>
                    </mxGeometry>
                </mxCell>
                <mxCell id="33" value="INICIO" style="ellipse;whiteSpace=wrap;html=1;aspect=fixed;fillColor=#60a917;fontColor=#ffffff;strokeColor=#2D7600;sketch=1;curveFitting=1;jiggle=2;" vertex="1" parent="1">
                    <mxGeometry x="827" y="90" width="150" height="150" as="geometry"/>
                </mxCell>
                <mxCell id="43" value="NÃO" style="edgeStyle=none;html=1;exitX=1;exitY=0.5;exitDx=0;exitDy=0;fillColor=#a20025;strokeColor=#6F0000;sketch=1;curveFitting=1;jiggle=2;strokeWidth=2;" edge="1" parent="1" source="42" target="44">
                    <mxGeometry relative="1" as="geometry">
                        <mxPoint x="1160" y="435" as="targetPoint"/>
                    </mxGeometry>
                </mxCell>
                <mxCell id="52" value="SIM" style="edgeStyle=none;html=1;fillColor=#60a917;strokeColor=#2D7600;sketch=1;curveFitting=1;jiggle=2;strokeWidth=2;" edge="1" parent="1" source="42" target="51">
                    <mxGeometry relative="1" as="geometry"/>
                </mxCell>
                <mxCell id="42" value="ULTIMO?" style="rhombus;whiteSpace=wrap;html=1;fillColor=#6a00ff;fontColor=#ffffff;strokeColor=#3700CC;sketch=1;curveFitting=1;jiggle=2;" vertex="1" parent="1">
                    <mxGeometry x="853" y="380" width="98" height="110" as="geometry"/>
                </mxCell>
                <mxCell id="46" value="" style="edgeStyle=none;html=1;sketch=1;curveFitting=1;jiggle=2;strokeWidth=2;fillColor=#a20025;strokeColor=#6F0000;" edge="1" parent="1" source="44" target="45">
                    <mxGeometry relative="1" as="geometry"/>
                </mxCell>
                <mxCell id="44" value="EXECUTA" style="rounded=0;whiteSpace=wrap;html=1;sketch=1;curveFitting=1;jiggle=2;fillColor=none;fontColor=#ffffff;strokeColor=#6F0000;gradientColor=default;" vertex="1" parent="1">
                    <mxGeometry x="1100" y="405" width="120" height="60" as="geometry"/>
                </mxCell>
                <mxCell id="47" style="edgeStyle=none;html=1;entryX=1;entryY=0;entryDx=0;entryDy=0;sketch=1;curveFitting=1;jiggle=2;strokeWidth=2;fillColor=#a20025;strokeColor=#6F0000;" edge="1" parent="1" source="45" target="42">
                    <mxGeometry relative="1" as="geometry"/>
                </mxCell>
                <mxCell id="45" value="INCREMENTA" style="rounded=0;whiteSpace=wrap;html=1;sketch=1;curveFitting=1;jiggle=2;fillColor=none;fontColor=#ffffff;strokeColor=#6F0000;" vertex="1" parent="1">
                    <mxGeometry x="1100" y="265" width="120" height="60" as="geometry"/>
                </mxCell>
                <mxCell id="51" value="FIM" style="ellipse;whiteSpace=wrap;html=1;fillColor=#a20025;fontColor=#ffffff;strokeColor=#6F0000;sketch=1;curveFitting=1;jiggle=2;" vertex="1" parent="1">
                    <mxGeometry x="827" y="640" width="151" height="165" as="geometry"/>
                </mxCell>
            </root>
        </mxGraphModel>
    </diagram>
</mxfile>